<?xml version="1.0" encoding="utf-8"?>
<!-- Generator: Adobe Illustrator 26.0.1, SVG Export Plug-In . SVG Version: 6.00 Build 0)  -->
<svg version="1.1" id="Layer_1" xmlns="http://www.w3.org/2000/svg" xmlns:xlink="http://www.w3.org/1999/xlink" x="0px" y="0px"
	 viewBox="0 0 283.46 283.46" style="enable-background:new 0 0 283.46 283.46;" xml:space="preserve">
<style type="text/css">
	.st0{stroke:#000000;stroke-width:0.5;stroke-miterlimit:10;}
</style>
<g>
	<g>
		<path class="st0" d="M112.01,247.21H81.88V96.67l30.14-30.28V247.21z M202.43,66.39h-90.41l30.07-30.14h60.34V66.39z
			 M202.43,156.8h-60.27v-30.14h60.27V156.8z M202.43,247.21h-60.27v-30.14h60.27V247.21z M232.56,126.66h-30.14V66.39h30.14V126.66
			z M232.56,217.07h-30.14V156.8h30.14V217.07z"/>
	</g>
	<g>
		<path class="st0" d="M111.17,66.39v60.27h45.21v30.14h-45.21v90.41H81.04V156.8H50.9v-30.14h30.14V96.53
			c0-37.67,22.6-60.27,60.27-60.27h15.07v30.14H111.17z"/>
	</g>
</g>
</svg>
