<?xml version="1.0" standalone="no"?>
<!DOCTYPE svg PUBLIC "-//W3C//DTD SVG 20010904//EN"
 "http://www.w3.org/TR/2001/REC-SVG-20010904/DTD/svg10.dtd">
<svg version="1.0" xmlns="http://www.w3.org/2000/svg"
 width="700.000000pt" height="700.000000pt" viewBox="0 0 700.000000 700.000000"
 preserveAspectRatio="xMidYMid meet">
<metadata>
Created by potrace 1.11, written by Peter Selinger 2001-2013
</metadata>
<g transform="translate(0.000000,700.000000) scale(0.100000,-0.100000)"
fill="#000000" stroke="none">
<path d="M2267 4712 c-16 -3 -17 -81 -17 -1083 l0 -1079 145 0 145 0 0 514 c0
481 1 514 18 517 9 3 202 4 428 3 l411 0 1 123 2 123 -430 0 -430 0 2 318 3
317 470 0 470 1 3 122 c1 67 -1 122 -5 123 -35 2 -1203 3 -1216 1z"/>
<path d="M3697 4705 c-1 -5 -2 -491 -1 -1080 l0 -1070 445 -2 c462 -1 527 3
664 42 198 57 346 196 400 375 35 119 27 327 -16 412 -11 21 -17 38 -14 38 14
0 -83 125 -127 165 -63 56 -158 105 -236 121 -28 5 -20 11 46 32 181 60 274
200 278 421 5 308 -170 494 -511 541 -104 15 -924 19 -928 5z m821 -238 c173
-15 285 -97 316 -228 38 -165 -20 -310 -148 -368 -90 -42 -152 -49 -430 -50
l-266 -2 0 325 0 325 23 3 c30 4 446 0 505 -5z m55 -891 c155 -25 241 -73 294
-163 72 -124 68 -349 -9 -466 -41 -63 -140 -122 -238 -142 -19 -4 -169 -9
-332 -11 l-298 -5 0 394 c0 217 2 396 4 398 7 6 537 2 579 -5z"/>
</g>
</svg>
